<svg width="18" height="18" viewBox="0 0 18 18" fill="none" xmlns="http://www.w3.org/2000/svg">
<path fill-rule="evenodd" clip-rule="evenodd" d="M11.08 12.59L13.67 10H4V8H13.67L11.08 5.41L12.5 4L17.5 9L12.5 14L11.08 12.59ZM16 0C17.1046 0 18 0.89543 18 2V6.67L16 4.67V2H2V16H16V13.33L18 11.33V16C18 17.1046 17.1046 18 16 18H2C0.89 18 0 17.1 0 16V2C0 0.89 0.89 0 2 0H16Z" fill="white"/>
<mask id="mask0_0_1007" style="mask-type:luminance" maskUnits="userSpaceOnUse" x="0" y="0" width="18" height="18">
<path fill-rule="evenodd" clip-rule="evenodd" d="M11.08 12.59L13.67 10H4V8H13.67L11.08 5.41L12.5 4L17.5 9L12.5 14L11.08 12.59ZM16 0C17.1046 0 18 0.89543 18 2V6.67L16 4.67V2H2V16H16V13.33L18 11.33V16C18 17.1046 17.1046 18 16 18H2C0.89 18 0 17.1 0 16V2C0 0.89 0.89 0 2 0H16Z" fill="white"/>
</mask>
<g mask="url(#mask0_0_1007)">
</g>
</svg>
