<svg width="24" height="24" viewBox="0 0 24 24" fill="none" xmlns="http://www.w3.org/2000/svg">
<path fill-rule="evenodd" clip-rule="evenodd" d="M8.53328 10.8V13.2H6.13328V10.8H8.53328ZM13.3332 10.8V13.2H10.9332V10.8H13.3332ZM18.1333 10.8V13.2H15.7333V10.8H18.1333ZM20.5333 2.4C21.8587 2.4 22.9333 3.47452 22.9333 4.8V21.6C22.9333 22.9255 21.8587 24 20.5333 24H3.73325C2.40125 24 1.33325 22.92 1.33325 21.6V4.8C1.33325 3.47452 2.40777 2.4 3.73325 2.4H4.93325V0H7.33325V2.4H16.9333V0H19.3333V2.4H20.5333ZM20.5333 21.6V8.4H3.73327V21.6H20.5333ZM8.53328 15.6V18H6.13328V15.6H8.53328ZM13.3332 15.6V18H10.9332V15.6H13.3332ZM18.1333 15.6V18H15.7333V15.6H18.1333Z" fill="white"/>
</svg>
