<svg width="24" height="24" viewBox="0 0 24 24" fill="none" xmlns="http://www.w3.org/2000/svg">
<path fill-rule="evenodd" clip-rule="evenodd" d="M2.4 2.6665H21.6C22.9255 2.6665 24 3.74102 24 5.0665V19.4665C24 20.792 22.9255 21.8665 21.6 21.8665H2.4C1.068 21.8665 0 20.7865 0 19.4665V5.0665C0 3.7345 1.068 2.6665 2.4 2.6665ZM12 11.0665L21.6 5.0665H2.40002L12 11.0665ZM2.40002 19.4665H21.6V7.9105L12 13.8985L2.40002 7.9105V19.4665Z" fill="white"/>
<mask id="mask0_0_818" style="mask-type:luminance" maskUnits="userSpaceOnUse" x="0" y="2" width="24" height="20">
<path fill-rule="evenodd" clip-rule="evenodd" d="M2.4 2.6665H21.6C22.9255 2.6665 24 3.74102 24 5.0665V19.4665C24 20.792 22.9255 21.8665 21.6 21.8665H2.4C1.068 21.8665 0 20.7865 0 19.4665V5.0665C0 3.7345 1.068 2.6665 2.4 2.6665ZM12 11.0665L21.6 5.0665H2.40002L12 11.0665ZM2.40002 19.4665H21.6V7.9105L12 13.8985L2.40002 7.9105V19.4665Z" fill="white"/>
</mask>
<g mask="url(#mask0_0_818)">
</g>
</svg>
