<svg width="14" height="14" viewBox="0 0 14 14" fill="none" xmlns="http://www.w3.org/2000/svg">
<path fill-rule="evenodd" clip-rule="evenodd" d="M8.90908 1.55556C7.50326 1.55556 6.36362 2.6952 6.36362 4.10101C6.36362 5.50683 7.50326 6.64647 8.90908 6.64647C10.3149 6.64647 11.4545 5.50683 11.4545 4.10101C11.4545 2.6952 10.3149 1.55556 8.90908 1.55556ZM8.9091 2.76465C9.64728 2.76465 10.2455 3.36283 10.2455 4.10101C10.2455 4.83919 9.64728 5.43737 8.9091 5.43737C8.17105 5.43737 7.57274 4.83906 7.57274 4.10101C7.57274 3.36296 8.17105 2.76465 8.9091 2.76465ZM1.90909 3.46465V5.37374H0V6.64647H1.90909V8.55556H3.18182V6.64647H5.09091V5.37374H3.18182V3.46465H1.90909ZM8.90907 7.28283C7.20998 7.28283 3.81816 8.12919 3.81816 9.82829V11.7374H14V9.82829C14 8.12919 10.6082 7.28283 8.90907 7.28283ZM8.90909 8.49192C10.7991 8.49192 12.7909 9.42101 12.7909 9.82828V10.5283H5.02728V9.82828C5.02728 9.42101 7 8.49192 8.90909 8.49192Z" fill="white"/>
<mask id="mask0_0_1610" style="mask-type:luminance" maskUnits="userSpaceOnUse" x="0" y="1" width="14" height="11">
<path fill-rule="evenodd" clip-rule="evenodd" d="M8.90908 1.55556C7.50326 1.55556 6.36362 2.6952 6.36362 4.10101C6.36362 5.50683 7.50326 6.64647 8.90908 6.64647C10.3149 6.64647 11.4545 5.50683 11.4545 4.10101C11.4545 2.6952 10.3149 1.55556 8.90908 1.55556ZM8.9091 2.76465C9.64728 2.76465 10.2455 3.36283 10.2455 4.10101C10.2455 4.83919 9.64728 5.43737 8.9091 5.43737C8.17105 5.43737 7.57274 4.83906 7.57274 4.10101C7.57274 3.36296 8.17105 2.76465 8.9091 2.76465ZM1.90909 3.46465V5.37374H0V6.64647H1.90909V8.55556H3.18182V6.64647H5.09091V5.37374H3.18182V3.46465H1.90909ZM8.90907 7.28283C7.20998 7.28283 3.81816 8.12919 3.81816 9.82829V11.7374H14V9.82829C14 8.12919 10.6082 7.28283 8.90907 7.28283ZM8.90909 8.49192C10.7991 8.49192 12.7909 9.42101 12.7909 9.82828V10.5283H5.02728V9.82828C5.02728 9.42101 7 8.49192 8.90909 8.49192Z" fill="white"/>
</mask>
<g mask="url(#mask0_0_1610)">
</g>
</svg>
