<svg width="14" height="14" viewBox="0 0 14 14" fill="none" xmlns="http://www.w3.org/2000/svg">
<path fill-rule="evenodd" clip-rule="evenodd" d="M1.4 2.17777H3.5L4.9 0.777771H9.1L10.5 2.17777H12.6C13.3732 2.17777 14 2.80457 14 3.57777V11.9778C14 12.751 13.3732 13.3778 12.6 13.3778H1.4C0.626801 13.3778 0 12.751 0 11.9778V3.57777C0 2.80457 0.626801 2.17777 1.4 2.17777ZM7 4.27777C5.067 4.27777 3.5 5.84477 3.5 7.77777C3.5 9.71077 5.067 11.2778 7 11.2778C8.933 11.2778 10.5 9.71077 10.5 7.77777C10.5 5.84477 8.933 4.27777 7 4.27777ZM7 5.67777C8.1598 5.67777 9.1 6.61797 9.1 7.77777C9.1 8.93757 8.1598 9.87777 7 9.87777C5.8402 9.87777 4.9 8.93757 4.9 7.77777C4.9 6.61797 5.8402 5.67777 7 5.67777Z" fill="#8F92A1"/>
</svg>
