<svg width="15" height="14" viewBox="0 0 15 14" fill="none" xmlns="http://www.w3.org/2000/svg">
<path fill-rule="evenodd" clip-rule="evenodd" d="M7.46081 12.845L6.379 11.921C2.53668 8.652 0 6.489 0 3.85C0 1.687 1.80552 0 4.10345 0C5.40163 0 6.64759 0.567 7.46081 1.456C8.27404 0.567 9.52 0 10.8182 0C13.1161 0 14.9216 1.687 14.9216 3.85C14.9216 6.489 12.385 8.652 8.54263 11.921L7.46081 12.845Z" fill="#FF4E4E"/>
<mask id="mask0_0_1366" style="mask-type:luminance" maskUnits="userSpaceOnUse" x="0" y="0" width="15" height="13">
<path fill-rule="evenodd" clip-rule="evenodd" d="M7.46081 12.845L6.379 11.921C2.53668 8.652 0 6.489 0 3.85C0 1.687 1.80552 0 4.10345 0C5.40163 0 6.64759 0.567 7.46081 1.456C8.27404 0.567 9.52 0 10.8182 0C13.1161 0 14.9216 1.687 14.9216 3.85C14.9216 6.489 12.385 8.652 8.54263 11.921L7.46081 12.845Z" fill="white"/>
</mask>
<g mask="url(#mask0_0_1366)">
</g>
</svg>
