<svg width="20" height="20" viewBox="0 0 20 20" fill="none" xmlns="http://www.w3.org/2000/svg">
<path fill-rule="evenodd" clip-rule="evenodd" d="M18 10C18 5.58172 14.4183 2 10 2C5.58172 2 2 5.58172 2 10C2 14.4183 5.58172 18 10 18C12.1217 18 14.1566 17.1571 15.6569 15.6569C17.1571 14.1566 18 12.1217 18 10ZM20 10C20 15.5228 15.5228 20 10 20C7.34784 20 4.8043 18.9464 2.92893 17.0711C1.05357 15.1957 0 12.6522 0 10C0 7.34784 1.05357 4.8043 2.92893 2.92893C4.8043 1.05357 7.34784 0 10 0C12.6522 0 15.1957 1.05357 17.0711 2.92893C18.9464 4.8043 20 7.34784 20 10ZM8 7.5C8 8.3 7.3 9 6.5 9C5.7 9 5 8.3 5 7.5C5 6.7 5.7 6 6.5 6C7.3 6 8 6.7 8 7.5ZM15 7.5C15 8.3 14.3 9 13.5 9C12.7 9 12 8.3 12 7.5C12 6.7 12.7 6 13.5 6C14.3 6 15 6.7 15 7.5ZM10 15.23C8.25 15.23 6.71 14.5 5.81 13.42L7.23 12C7.68 12.72 8.75 13.23 10 13.23C11.25 13.23 12.32 12.72 12.77 12L14.19 13.42C13.29 14.5 11.75 15.23 10 15.23Z" fill="white"/>
<mask id="mask0_837_5433" style="mask-type:luminance" maskUnits="userSpaceOnUse" x="0" y="0" width="20" height="20">
<path fill-rule="evenodd" clip-rule="evenodd" d="M18 10C18 5.58172 14.4183 2 10 2C5.58172 2 2 5.58172 2 10C2 14.4183 5.58172 18 10 18C12.1217 18 14.1566 17.1571 15.6569 15.6569C17.1571 14.1566 18 12.1217 18 10ZM20 10C20 15.5228 15.5228 20 10 20C7.34784 20 4.8043 18.9464 2.92893 17.0711C1.05357 15.1957 0 12.6522 0 10C0 7.34784 1.05357 4.8043 2.92893 2.92893C4.8043 1.05357 7.34784 0 10 0C12.6522 0 15.1957 1.05357 17.0711 2.92893C18.9464 4.8043 20 7.34784 20 10ZM8 7.5C8 8.3 7.3 9 6.5 9C5.7 9 5 8.3 5 7.5C5 6.7 5.7 6 6.5 6C7.3 6 8 6.7 8 7.5ZM15 7.5C15 8.3 14.3 9 13.5 9C12.7 9 12 8.3 12 7.5C12 6.7 12.7 6 13.5 6C14.3 6 15 6.7 15 7.5ZM10 15.23C8.25 15.23 6.71 14.5 5.81 13.42L7.23 12C7.68 12.72 8.75 13.23 10 13.23C11.25 13.23 12.32 12.72 12.77 12L14.19 13.42C13.29 14.5 11.75 15.23 10 15.23Z" fill="white"/>
</mask>
<g mask="url(#mask0_837_5433)">
</g>
</svg>
