<svg width="18" height="18" viewBox="0 0 18 18" fill="none" xmlns="http://www.w3.org/2000/svg">
<path fill-rule="evenodd" clip-rule="evenodd" d="M1.8 2.8H4.5L6.3 1H11.7L13.5 2.8H16.2C17.1941 2.8 18 3.60589 18 4.6V15.4C18 16.3941 17.1941 17.2 16.2 17.2H1.8C0.805887 17.2 0 16.3941 0 15.4V4.6C0 3.60589 0.805887 2.8 1.8 2.8ZM9 5.5C6.51472 5.5 4.5 7.51472 4.5 10C4.5 12.4853 6.51472 14.5 9 14.5C11.4853 14.5 13.5 12.4853 13.5 10C13.5 7.51472 11.4853 5.5 9 5.5ZM9 7.3C10.4912 7.3 11.7 8.50883 11.7 10C11.7 11.4912 10.4912 12.7 9 12.7C7.50883 12.7 6.3 11.4912 6.3 10C6.3 8.50883 7.50883 7.3 9 7.3Z" fill="#8F92A1"/>
<mask id="mask0_338_9" style="mask-type:luminance" maskUnits="userSpaceOnUse" x="0" y="1" width="18" height="17">
<path fill-rule="evenodd" clip-rule="evenodd" d="M1.8 2.8H4.5L6.3 1H11.7L13.5 2.8H16.2C17.1941 2.8 18 3.60589 18 4.6V15.4C18 16.3941 17.1941 17.2 16.2 17.2H1.8C0.805887 17.2 0 16.3941 0 15.4V4.6C0 3.60589 0.805887 2.8 1.8 2.8ZM9 5.5C6.51472 5.5 4.5 7.51472 4.5 10C4.5 12.4853 6.51472 14.5 9 14.5C11.4853 14.5 13.5 12.4853 13.5 10C13.5 7.51472 11.4853 5.5 9 5.5ZM9 7.3C10.4912 7.3 11.7 8.50883 11.7 10C11.7 11.4912 10.4912 12.7 9 12.7C7.50883 12.7 6.3 11.4912 6.3 10C6.3 8.50883 7.50883 7.3 9 7.3Z" fill="white"/>
</mask>
<g mask="url(#mask0_338_9)">
</g>
</svg>
