<svg width="14" height="14" viewBox="0 0 14 14" fill="none" xmlns="http://www.w3.org/2000/svg">
<path fill-rule="evenodd" clip-rule="evenodd" d="M7.06999 11.4294L6.99999 11.4994L6.92299 11.4294C3.59799 8.41243 1.39999 6.41743 1.39999 4.39443C1.39999 2.99443 2.44999 1.94443 3.84999 1.94443C4.92799 1.94443 5.97799 2.64443 6.34899 3.59643H7.65099C8.02199 2.64443 9.07199 1.94443 10.15 1.94443C11.55 1.94443 12.6 2.99443 12.6 4.39443C12.6 6.41743 10.402 8.41243 7.06999 11.4294ZM10.15 0.544434C8.932 0.544434 7.763 1.11143 7 2.00043C6.237 1.11143 5.068 0.544434 3.85 0.544434C1.694 0.544434 0 2.23143 0 4.39443C0 7.03343 2.38 9.19643 5.985 12.4654L7 13.3894L8.015 12.4654C11.62 9.19643 14 7.03343 14 4.39443C14 2.23143 12.306 0.544434 10.15 0.544434Z" fill="#8F92A1"/>
<mask id="mask0_0_515" style="mask-type:luminance" maskUnits="userSpaceOnUse" x="0" y="0" width="14" height="14">
<path fill-rule="evenodd" clip-rule="evenodd" d="M7.06999 11.4294L6.99999 11.4994L6.92299 11.4294C3.59799 8.41243 1.39999 6.41743 1.39999 4.39443C1.39999 2.99443 2.44999 1.94443 3.84999 1.94443C4.92799 1.94443 5.97799 2.64443 6.34899 3.59643H7.65099C8.02199 2.64443 9.07199 1.94443 10.15 1.94443C11.55 1.94443 12.6 2.99443 12.6 4.39443C12.6 6.41743 10.402 8.41243 7.06999 11.4294ZM10.15 0.544434C8.932 0.544434 7.763 1.11143 7 2.00043C6.237 1.11143 5.068 0.544434 3.85 0.544434C1.694 0.544434 0 2.23143 0 4.39443C0 7.03343 2.38 9.19643 5.985 12.4654L7 13.3894L8.015 12.4654C11.62 9.19643 14 7.03343 14 4.39443C14 2.23143 12.306 0.544434 10.15 0.544434Z" fill="white"/>
</mask>
<g mask="url(#mask0_0_515)">
</g>
</svg>
