<svg width="14" height="14" viewBox="0 0 14 14" fill="none" xmlns="http://www.w3.org/2000/svg">
<path fill-rule="evenodd" clip-rule="evenodd" d="M8.90908 1.55566C7.50326 1.55566 6.36362 2.6953 6.36362 4.10112C6.36362 5.50693 7.50326 6.64657 8.90908 6.64657C10.3149 6.64657 11.4545 5.50693 11.4545 4.10112C11.4545 2.6953 10.3149 1.55566 8.90908 1.55566ZM8.9091 2.76475C9.64728 2.76475 10.2455 3.36294 10.2455 4.10112C10.2455 4.8393 9.64728 5.43748 8.9091 5.43748C8.17105 5.43748 7.57274 4.83917 7.57274 4.10112C7.57274 3.36306 8.17105 2.76475 8.9091 2.76475ZM1.90909 3.46476V5.37385H0V6.64657H1.90909V8.55566H3.18182V6.64657H5.09091V5.37385H3.18182V3.46476H1.90909ZM8.90907 7.28294C7.20998 7.28294 3.81816 8.1293 3.81816 9.82839V11.7375H14V9.82839C14 8.1293 10.6082 7.28294 8.90907 7.28294ZM8.90909 8.49203C10.7991 8.49203 12.7909 9.42112 12.7909 9.82839V10.5284H5.02728V9.82839C5.02728 9.42112 7 8.49203 8.90909 8.49203Z" fill="white"/>
<mask id="mask0_0_623" style="mask-type:luminance" maskUnits="userSpaceOnUse" x="0" y="1" width="14" height="11">
<path fill-rule="evenodd" clip-rule="evenodd" d="M8.90908 1.55566C7.50326 1.55566 6.36362 2.6953 6.36362 4.10112C6.36362 5.50693 7.50326 6.64657 8.90908 6.64657C10.3149 6.64657 11.4545 5.50693 11.4545 4.10112C11.4545 2.6953 10.3149 1.55566 8.90908 1.55566ZM8.9091 2.76475C9.64728 2.76475 10.2455 3.36294 10.2455 4.10112C10.2455 4.8393 9.64728 5.43748 8.9091 5.43748C8.17105 5.43748 7.57274 4.83917 7.57274 4.10112C7.57274 3.36306 8.17105 2.76475 8.9091 2.76475ZM1.90909 3.46476V5.37385H0V6.64657H1.90909V8.55566H3.18182V6.64657H5.09091V5.37385H3.18182V3.46476H1.90909ZM8.90907 7.28294C7.20998 7.28294 3.81816 8.1293 3.81816 9.82839V11.7375H14V9.82839C14 8.1293 10.6082 7.28294 8.90907 7.28294ZM8.90909 8.49203C10.7991 8.49203 12.7909 9.42112 12.7909 9.82839V10.5284H5.02728V9.82839C5.02728 9.42112 7 8.49203 8.90909 8.49203Z" fill="white"/>
</mask>
<g mask="url(#mask0_0_623)">
</g>
</svg>
