<svg width="14" height="14" viewBox="0 0 14 14" fill="none" xmlns="http://www.w3.org/2000/svg">
<path fill-rule="evenodd" clip-rule="evenodd" d="M1.4 2.17783H3.5L4.9 0.777832H9.1L10.5 2.17783H12.6C13.3732 2.17783 14 2.80463 14 3.57783V11.9778C14 12.751 13.3732 13.3778 12.6 13.3778H1.4C0.626801 13.3778 0 12.751 0 11.9778V3.57783C0 2.80463 0.626801 2.17783 1.4 2.17783ZM7 4.27783C5.067 4.27783 3.5 5.84484 3.5 7.77783C3.5 9.71083 5.067 11.2778 7 11.2778C8.933 11.2778 10.5 9.71083 10.5 7.77783C10.5 5.84484 8.933 4.27783 7 4.27783ZM6.99999 5.67783C8.15979 5.67783 9.09999 6.61803 9.09999 7.77783C9.09999 8.93763 8.15979 9.87783 6.99999 9.87783C5.84019 9.87783 4.89999 8.93763 4.89999 7.77783C4.89999 6.61803 5.84019 5.67783 6.99999 5.67783Z" fill="#1E1F20"/>
<mask id="mask0_0_1186" style="mask-type:luminance" maskUnits="userSpaceOnUse" x="0" y="0" width="14" height="14">
<path fill-rule="evenodd" clip-rule="evenodd" d="M1.4 2.17783H3.5L4.9 0.777832H9.1L10.5 2.17783H12.6C13.3732 2.17783 14 2.80463 14 3.57783V11.9778C14 12.751 13.3732 13.3778 12.6 13.3778H1.4C0.626801 13.3778 0 12.751 0 11.9778V3.57783C0 2.80463 0.626801 2.17783 1.4 2.17783ZM7 4.27783C5.067 4.27783 3.5 5.84484 3.5 7.77783C3.5 9.71083 5.067 11.2778 7 11.2778C8.933 11.2778 10.5 9.71083 10.5 7.77783C10.5 5.84484 8.933 4.27783 7 4.27783ZM6.99999 5.67783C8.15979 5.67783 9.09999 6.61803 9.09999 7.77783C9.09999 8.93763 8.15979 9.87783 6.99999 9.87783C5.84019 9.87783 4.89999 8.93763 4.89999 7.77783C4.89999 6.61803 5.84019 5.67783 6.99999 5.67783Z" fill="white"/>
</mask>
<g mask="url(#mask0_0_1186)">
</g>
</svg>
