<svg width="18" height="18" viewBox="0 0 18 18" fill="none" xmlns="http://www.w3.org/2000/svg">
<path fill-rule="evenodd" clip-rule="evenodd" d="M14.4658 15C13.7543 16.0629 13 17.1 11.8515 17.1171C10.7029 17.1429 10.3343 16.44 9.03147 16.44C7.72004 16.44 7.31719 17.1 6.22862 17.1429C5.10576 17.1857 4.25719 16.0114 3.53719 14.9743C2.07147 12.8571 0.948615 8.95714 2.45719 6.33429C3.2029 5.03143 4.54004 4.20857 5.98862 4.18286C7.08576 4.16571 8.13147 4.92857 8.80862 4.92857C9.47719 4.92857 10.7458 4.01143 12.0743 4.14857C12.6315 4.17429 14.1915 4.37143 15.1943 5.84571C15.1172 5.89714 13.3343 6.94286 13.3515 9.11143C13.3772 11.7 15.6229 12.5657 15.6486 12.5743C15.6229 12.6343 15.2886 13.8086 14.4658 15ZM9.57147 1.28571C10.1972 0.574286 11.2343 0.0342857 12.0915 0C12.2029 1.00286 11.8 2.01429 11.2 2.73429C10.6086 3.46286 9.63147 4.02857 8.67147 3.95143C8.5429 2.96571 9.0229 1.93714 9.57147 1.28571Z" fill="white"/>
</svg>
