<svg width="18" height="18" viewBox="0 0 18 18" fill="none" xmlns="http://www.w3.org/2000/svg">
<path fill-rule="evenodd" clip-rule="evenodd" d="M18 7.90909H16.3636V6.27273H14.7273V7.90909H13.0909V9.54545H14.7273V11.1818H16.3636V9.54545H18M5.72727 7.90909V9.87273H9C8.83636 10.6909 8.01818 12.3273 5.72727 12.3273C3.76364 12.3273 2.20909 10.6909 2.20909 8.72727C2.20909 6.76364 3.76364 5.12727 5.72727 5.12727C6.87273 5.12727 7.60909 5.61818 8.01818 6.02727L9.57273 4.55455C8.59091 3.57273 7.28182 3 5.72727 3C2.53636 3 0 5.53636 0 8.72727C0 11.9182 2.53636 14.4545 5.72727 14.4545C9 14.4545 11.2091 12.1636 11.2091 8.89091C11.2091 8.48182 11.2091 8.23636 11.1273 7.90909H5.72727Z" fill="#1E1F20"/>
</svg>
