<svg width="15" height="14" viewBox="0 0 15 14" fill="none" xmlns="http://www.w3.org/2000/svg">
<path fill-rule="evenodd" clip-rule="evenodd" d="M7.53542 11.4294L7.46081 11.4994L7.37875 11.4294C3.83486 8.41243 1.49216 6.41743 1.49216 4.39443C1.49216 2.99443 2.61129 1.94443 4.10345 1.94443C5.25241 1.94443 6.37154 2.64443 6.76696 3.59643H8.15467C8.55009 2.64443 9.66922 1.94443 10.8182 1.94443C12.3103 1.94443 13.4295 2.99443 13.4295 4.39443C13.4295 6.41743 11.0868 8.41243 7.53542 11.4294ZM10.8182 0.544434C9.52 0.544434 8.27404 1.11143 7.46081 2.00043C6.64759 1.11143 5.40163 0.544434 4.10345 0.544434C1.80552 0.544434 0 2.23143 0 4.39443C0 7.03343 2.53668 9.19643 6.379 12.4654L7.46081 13.3894L8.54263 12.4654C12.385 9.19643 14.9216 7.03343 14.9216 4.39443C14.9216 2.23143 13.1161 0.544434 10.8182 0.544434Z" fill="#8F92A1"/>
<mask id="mask0_0_1122" style="mask-type:luminance" maskUnits="userSpaceOnUse" x="0" y="0" width="15" height="14">
<path fill-rule="evenodd" clip-rule="evenodd" d="M7.53542 11.4294L7.46081 11.4994L7.37875 11.4294C3.83486 8.41243 1.49216 6.41743 1.49216 4.39443C1.49216 2.99443 2.61129 1.94443 4.10345 1.94443C5.25241 1.94443 6.37154 2.64443 6.76696 3.59643H8.15467C8.55009 2.64443 9.66922 1.94443 10.8182 1.94443C12.3103 1.94443 13.4295 2.99443 13.4295 4.39443C13.4295 6.41743 11.0868 8.41243 7.53542 11.4294ZM10.8182 0.544434C9.52 0.544434 8.27404 1.11143 7.46081 2.00043C6.64759 1.11143 5.40163 0.544434 4.10345 0.544434C1.80552 0.544434 0 2.23143 0 4.39443C0 7.03343 2.53668 9.19643 6.379 12.4654L7.46081 13.3894L8.54263 12.4654C12.385 9.19643 14.9216 7.03343 14.9216 4.39443C14.9216 2.23143 13.1161 0.544434 10.8182 0.544434Z" fill="white"/>
</mask>
<g mask="url(#mask0_0_1122)">
</g>
</svg>
