<svg width="14" height="14" viewBox="0 0 14 14" fill="none" xmlns="http://www.w3.org/2000/svg">
<path fill-rule="evenodd" clip-rule="evenodd" d="M7.07 11.4294L7 11.4994L6.923 11.4294C3.598 8.41243 1.4 6.41743 1.4 4.39443C1.4 2.99443 2.45 1.94443 3.85 1.94443C4.928 1.94443 5.978 2.64443 6.349 3.59643H7.651C8.022 2.64443 9.072 1.94443 10.15 1.94443C11.55 1.94443 12.6 2.99443 12.6 4.39443C12.6 6.41743 10.402 8.41243 7.07 11.4294ZM10.15 0.544434C8.932 0.544434 7.763 1.11143 7 2.00043C6.237 1.11143 5.068 0.544434 3.85 0.544434C1.694 0.544434 0 2.23143 0 4.39443C0 7.03343 2.38 9.19643 5.985 12.4654L7 13.3894L8.015 12.4654C11.62 9.19643 14 7.03343 14 4.39443C14 2.23143 12.306 0.544434 10.15 0.544434Z" fill="white"/>
<mask id="mask0_0_1493" style="mask-type:luminance" maskUnits="userSpaceOnUse" x="0" y="0" width="14" height="14">
<path fill-rule="evenodd" clip-rule="evenodd" d="M7.07 11.4294L7 11.4994L6.923 11.4294C3.598 8.41243 1.4 6.41743 1.4 4.39443C1.4 2.99443 2.45 1.94443 3.85 1.94443C4.928 1.94443 5.978 2.64443 6.349 3.59643H7.651C8.022 2.64443 9.072 1.94443 10.15 1.94443C11.55 1.94443 12.6 2.99443 12.6 4.39443C12.6 6.41743 10.402 8.41243 7.07 11.4294ZM10.15 0.544434C8.932 0.544434 7.763 1.11143 7 2.00043C6.237 1.11143 5.068 0.544434 3.85 0.544434C1.694 0.544434 0 2.23143 0 4.39443C0 7.03343 2.38 9.19643 5.985 12.4654L7 13.3894L8.015 12.4654C11.62 9.19643 14 7.03343 14 4.39443C14 2.23143 12.306 0.544434 10.15 0.544434Z" fill="white"/>
</mask>
<g mask="url(#mask0_0_1493)">
</g>
</svg>
