<svg width="49" height="48" viewBox="0 0 49 48" fill="none" xmlns="http://www.w3.org/2000/svg">
<path d="M11.2294 30.7733C10.7204 30.2043 10.4204 29.4788 10.3791 28.7165V19.2099C10.4203 18.4475 10.7203 17.7219 11.2294 17.1531L11.9019 16.4804C12.1274 16.2543 12.2541 15.9481 12.2541 15.6287C12.2541 15.3094 12.1274 15.0031 11.9019 14.7771L4.7689 7.64052C4.54271 7.41517 4.23648 7.28864 3.91723 7.28864C3.59799 7.28864 3.29176 7.41517 3.06557 7.64052L0.350391 10.3567C0.125928 10.5833 0 10.8894 0 11.2083C0 11.5273 0.125928 11.8334 0.350391 12.06L5.44135 17.1528C5.95142 17.7212 6.25178 18.447 6.29256 19.2097V28.7163C6.25189 29.4786 5.95149 30.2038 5.44135 30.7717L0.350391 35.8665C0.125928 36.0931 0 36.3992 0 36.718C0 37.037 0.125928 37.3432 0.350391 37.5698L3.06557 40.2859C3.29179 40.5112 3.59801 40.6377 3.91723 40.6377C4.23646 40.6377 4.54268 40.5112 4.7689 40.2859L11.9019 33.1488C12.1274 32.9226 12.254 32.6165 12.254 32.2973C12.254 31.9778 12.1274 31.6717 11.9019 31.4457L11.2294 30.7733Z" fill="white"/>
<path d="M30.8323 36.766C30.2637 37.2752 29.5388 37.5756 28.7766 37.6177H19.2763C18.5137 37.5756 17.7881 37.2754 17.2188 36.766L16.548 36.0915C16.321 35.8669 16.0147 35.741 15.6955 35.741C15.3763 35.741 15.0701 35.8669 14.8431 36.0915L7.71096 43.2281C7.48579 43.4547 7.35938 43.7613 7.35938 44.0808C7.35938 44.4002 7.48579 44.7068 7.71096 44.9332L10.4261 47.6495C10.6528 47.8741 10.959 48 11.278 48C11.5971 48 11.9032 47.8741 12.1299 47.6495L17.2198 42.554C17.7888 42.0451 18.5142 41.7448 19.2765 41.7027H28.7796C29.5417 41.7446 30.2667 42.0448 30.8352 42.554L35.9273 47.6495C36.1539 47.8741 36.4598 48 36.7788 48C37.0976 48 37.4038 47.8741 37.6302 47.6495L40.3453 44.9332C40.5706 44.7068 40.697 44.4002 40.697 44.0808C40.697 43.7613 40.5706 43.4547 40.3453 43.2281L33.2081 36.091C32.9816 35.8664 32.6758 35.7405 32.357 35.7405C32.0382 35.7405 31.732 35.8664 31.5056 36.091L30.8323 36.766Z" fill="white"/>
<path d="M36.9939 17.2264C37.5042 17.7959 37.8051 18.5225 37.8466 19.2862V28.7892C37.8049 29.5525 37.504 30.2786 36.9939 30.8473L36.3212 31.5216C36.0964 31.748 35.9703 32.0541 35.9703 32.3734C35.9703 32.6924 36.0964 32.9985 36.3212 33.2249L43.4562 40.3606C43.6824 40.5859 43.9888 40.7123 44.3078 40.7123C44.627 40.7123 44.9331 40.5859 45.1593 40.3606L47.8745 37.643C48.0998 37.4168 48.2264 37.1104 48.2264 36.7912C48.2264 36.4719 48.0998 36.1656 47.8745 35.9394L42.7847 30.8464C42.2743 30.2777 41.9732 29.5516 41.9315 28.7883L41.9329 19.2853C41.9739 18.5217 42.2743 17.795 42.7847 17.2255L47.8745 12.1327C48.0998 11.9069 48.2264 11.6009 48.2264 11.2819C48.2264 10.9629 48.0998 10.657 47.8745 10.4312L45.1593 7.71344C45.0475 7.60156 44.9148 7.51281 44.7688 7.45226C44.6225 7.39172 44.466 7.36054 44.3078 7.36054C44.1497 7.36054 43.9931 7.39172 43.847 7.45226C43.7008 7.51281 43.5681 7.60156 43.4562 7.71344L36.3212 14.8489C36.0964 15.0753 35.9703 15.3815 35.9703 15.7006C35.9703 16.0198 36.0964 16.326 36.3212 16.5524L36.9939 17.2264Z" fill="white"/>
<path d="M17.391 11.2338C17.9593 10.7239 18.6847 10.4234 19.447 10.3821H28.9482C29.7103 10.4241 30.4353 10.7245 31.004 11.2338L31.6781 11.9079C31.7897 12.0197 31.9224 12.1084 32.0684 12.169C32.2145 12.2295 32.3709 12.2607 32.529 12.2607C32.687 12.2607 32.8437 12.2295 32.9895 12.169C33.1355 12.1084 33.2682 12.0197 33.38 11.9079L40.5139 4.77084C40.739 4.54427 40.8653 4.23777 40.8653 3.9183C40.8653 3.59885 40.739 3.29235 40.5139 3.06575L37.7988 0.352742C37.5728 0.126874 37.2665 0 36.947 0C36.6275 0 36.3212 0.126874 36.0952 0.352742L31.0043 5.44561C30.4355 5.95488 29.7105 6.25529 28.9484 6.29734H19.447C18.6847 6.25602 17.9593 5.95552 17.391 5.44561L12.3 0.352742C12.0733 0.128249 11.7672 0.00232096 11.4482 0.00232096C11.1292 0.00232096 10.8231 0.128249 10.5964 0.352742L7.88126 3.06892C7.65616 3.29548 7.52979 3.60193 7.52979 3.92136C7.52979 4.24078 7.65616 4.54724 7.88126 4.77379L15.0136 11.9076C15.2396 12.1335 15.5459 12.2604 15.8654 12.2604C16.1848 12.2604 16.4912 12.1335 16.7171 11.9076L17.391 11.2338Z" fill="white"/>
</svg>
