<svg width="24" height="24" viewBox="0 0 24 24" fill="none" xmlns="http://www.w3.org/2000/svg">
<path fill-rule="evenodd" clip-rule="evenodd" d="M11.9999 7.2C14.6509 7.2 16.7999 9.34903 16.7999 12C16.7999 14.651 14.6509 16.8 11.9999 16.8C9.34897 16.8 7.19994 14.651 7.19994 12C7.19994 9.34903 9.34897 7.2 11.9999 7.2ZM11.9999 9.6C10.6744 9.6 9.59987 10.6745 9.59987 12C9.59987 13.3255 10.6744 14.4 11.9999 14.4C13.3254 14.4 14.3999 13.3255 14.3999 12C14.3999 10.6745 13.3254 9.6 11.9999 9.6ZM9.59991 24C9.2999 24 9.04791 23.784 8.99991 23.496L8.55591 20.316C7.79991 20.016 7.15191 19.608 6.52791 19.128L3.53991 20.34C3.2759 20.436 2.95191 20.34 2.8079 20.076L0.407905 15.924C0.251905 15.66 0.323905 15.336 0.551905 15.156L3.0839 13.164L2.99991 12L3.0839 10.8L0.551905 8.844C0.323905 8.664 0.251905 8.34 0.407905 8.076L2.8079 3.924C2.95191 3.66 3.2759 3.552 3.53991 3.66L6.52791 4.86C7.15191 4.392 7.79991 3.984 8.55591 3.684L8.99991 0.504C9.04791 0.216 9.2999 0 9.59991 0H14.3999C14.6999 0 14.9519 0.216 14.9999 0.504L15.4439 3.684C16.1999 3.984 16.8479 4.392 17.4719 4.86L20.4599 3.66C20.7239 3.552 21.0479 3.66 21.1919 3.924L23.5919 8.076C23.7479 8.34 23.6759 8.664 23.4479 8.844L20.9159 10.8L20.9999 12L20.9159 13.2L23.4479 15.156C23.6759 15.336 23.7479 15.66 23.5919 15.924L21.1919 20.076C21.0479 20.34 20.7239 20.448 20.4599 20.34L17.4719 19.14C16.8479 19.608 16.1999 20.016 15.4439 20.316L14.9999 23.496C14.9519 23.784 14.6999 24 14.3999 24H9.59991ZM11.0999 2.4L10.6559 5.532C9.21592 5.832 7.94392 6.6 7.01992 7.668L4.12792 6.42L3.22792 7.98L5.75992 9.84C5.27992 11.244 5.27992 12.768 5.75992 14.16L3.21592 16.032L4.11592 17.592L7.03192 16.344C7.95592 17.4 9.21593 18.168 10.6439 18.456L11.0879 21.6H12.9119L13.3559 18.468C14.7839 18.168 16.0439 17.4 16.9679 16.344L19.8839 17.592L20.7839 16.032L18.2399 14.172C18.7199 12.768 18.7199 11.244 18.2399 9.84L20.7719 7.98L19.8719 6.42L16.9799 7.668C16.0559 6.6 14.7839 5.832 13.3439 5.544L12.8999 2.4H11.0999Z" fill="white"/>
<mask id="mask0_0_1273" style="mask-type:luminance" maskUnits="userSpaceOnUse" x="0" y="0" width="24" height="24">
<path fill-rule="evenodd" clip-rule="evenodd" d="M11.9999 7.2C14.6509 7.2 16.7999 9.34903 16.7999 12C16.7999 14.651 14.6509 16.8 11.9999 16.8C9.34897 16.8 7.19994 14.651 7.19994 12C7.19994 9.34903 9.34897 7.2 11.9999 7.2ZM11.9999 9.6C10.6744 9.6 9.59987 10.6745 9.59987 12C9.59987 13.3255 10.6744 14.4 11.9999 14.4C13.3254 14.4 14.3999 13.3255 14.3999 12C14.3999 10.6745 13.3254 9.6 11.9999 9.6ZM9.59991 24C9.2999 24 9.04791 23.784 8.99991 23.496L8.55591 20.316C7.79991 20.016 7.15191 19.608 6.52791 19.128L3.53991 20.34C3.2759 20.436 2.95191 20.34 2.8079 20.076L0.407905 15.924C0.251905 15.66 0.323905 15.336 0.551905 15.156L3.0839 13.164L2.99991 12L3.0839 10.8L0.551905 8.844C0.323905 8.664 0.251905 8.34 0.407905 8.076L2.8079 3.924C2.95191 3.66 3.2759 3.552 3.53991 3.66L6.52791 4.86C7.15191 4.392 7.79991 3.984 8.55591 3.684L8.99991 0.504C9.04791 0.216 9.2999 0 9.59991 0H14.3999C14.6999 0 14.9519 0.216 14.9999 0.504L15.4439 3.684C16.1999 3.984 16.8479 4.392 17.4719 4.86L20.4599 3.66C20.7239 3.552 21.0479 3.66 21.1919 3.924L23.5919 8.076C23.7479 8.34 23.6759 8.664 23.4479 8.844L20.9159 10.8L20.9999 12L20.9159 13.2L23.4479 15.156C23.6759 15.336 23.7479 15.66 23.5919 15.924L21.1919 20.076C21.0479 20.34 20.7239 20.448 20.4599 20.34L17.4719 19.14C16.8479 19.608 16.1999 20.016 15.4439 20.316L14.9999 23.496C14.9519 23.784 14.6999 24 14.3999 24H9.59991ZM11.0999 2.4L10.6559 5.532C9.21592 5.832 7.94392 6.6 7.01992 7.668L4.12792 6.42L3.22792 7.98L5.75992 9.84C5.27992 11.244 5.27992 12.768 5.75992 14.16L3.21592 16.032L4.11592 17.592L7.03192 16.344C7.95592 17.4 9.21593 18.168 10.6439 18.456L11.0879 21.6H12.9119L13.3559 18.468C14.7839 18.168 16.0439 17.4 16.9679 16.344L19.8839 17.592L20.7839 16.032L18.2399 14.172C18.7199 12.768 18.7199 11.244 18.2399 9.84L20.7719 7.98L19.8719 6.42L16.9799 7.668C16.0559 6.6 14.7839 5.832 13.3439 5.544L12.8999 2.4H11.0999Z" fill="white"/>
</mask>
<g mask="url(#mask0_0_1273)">
</g>
</svg>
