<svg width="24" height="24" viewBox="0 0 24 24" fill="none" xmlns="http://www.w3.org/2000/svg">
<path fill-rule="evenodd" clip-rule="evenodd" d="M8.53341 10.8V13.2H6.13341V10.8H8.53341ZM13.3334 10.8V13.2H10.9334V10.8H13.3334ZM18.1334 10.8V13.2H15.7334V10.8H18.1334ZM20.5334 2.4C21.8589 2.4 22.9334 3.47452 22.9334 4.8V21.6C22.9334 22.9255 21.8589 24 20.5334 24H3.73337C2.40137 24 1.33337 22.92 1.33337 21.6V4.8C1.33337 3.47452 2.40789 2.4 3.73337 2.4H4.93337V0H7.33337V2.4H16.9334V0H19.3334V2.4H20.5334ZM20.5334 21.6V8.4H3.73339V21.6H20.5334ZM8.53341 15.6V18H6.13341V15.6H8.53341ZM13.3334 15.6V18H10.9334V15.6H13.3334ZM18.1334 15.6V18H15.7334V15.6H18.1334Z" fill="white"/>
</svg>
