<svg width="24" height="24" viewBox="0 0 24 24" fill="none" xmlns="http://www.w3.org/2000/svg">
<path fill-rule="evenodd" clip-rule="evenodd" d="M12 1.33337C14.9456 1.33337 17.3334 3.72119 17.3334 6.66671C17.3334 9.61223 14.9456 12 12 12C9.05452 12 6.66671 9.61223 6.66671 6.66671C6.66671 3.72119 9.05452 1.33337 12 1.33337ZM12 4.00004C10.5273 4.00004 9.33337 5.19395 9.33337 6.66671C9.33337 8.13947 10.5273 9.33337 12 9.33337C13.4728 9.33337 14.6667 8.13947 14.6667 6.66671C14.6667 5.19395 13.4728 4.00004 12 4.00004ZM12 13.3334C15.56 13.3334 22.6667 15.1067 22.6667 18.6667V22.6667H1.33337V18.6667C1.33337 15.1067 8.44004 13.3334 12 13.3334ZM12 15.8667C8.04001 15.8667 3.86668 17.8134 3.86668 18.6667V20.1334H20.1333V18.6667C20.1333 17.8134 15.96 15.8667 12 15.8667Z" fill="white"/>
<mask id="mask0_0_1048" style="mask-type:luminance" maskUnits="userSpaceOnUse" x="1" y="1" width="22" height="22">
<path fill-rule="evenodd" clip-rule="evenodd" d="M12 1.33337C14.9456 1.33337 17.3334 3.72119 17.3334 6.66671C17.3334 9.61223 14.9456 12 12 12C9.05452 12 6.66671 9.61223 6.66671 6.66671C6.66671 3.72119 9.05452 1.33337 12 1.33337ZM12 4.00004C10.5273 4.00004 9.33337 5.19395 9.33337 6.66671C9.33337 8.13947 10.5273 9.33337 12 9.33337C13.4728 9.33337 14.6667 8.13947 14.6667 6.66671C14.6667 5.19395 13.4728 4.00004 12 4.00004ZM12 13.3334C15.56 13.3334 22.6667 15.1067 22.6667 18.6667V22.6667H1.33337V18.6667C1.33337 15.1067 8.44004 13.3334 12 13.3334ZM12 15.8667C8.04001 15.8667 3.86668 17.8134 3.86668 18.6667V20.1334H20.1333V18.6667C20.1333 17.8134 15.96 15.8667 12 15.8667Z" fill="white"/>
</mask>
<g mask="url(#mask0_0_1048)">
</g>
</svg>
