<svg width="25" height="25" viewBox="0 0 25 25" fill="none" xmlns="http://www.w3.org/2000/svg">
<path fill-rule="evenodd" clip-rule="evenodd" d="M12.4999 18.0556C14.0341 18.0556 15.2777 19.2992 15.2777 20.8334C15.2777 22.3675 14.0341 23.6111 12.4999 23.6111C10.9658 23.6111 9.72217 22.3675 9.72217 20.8334C9.72217 19.2992 10.9658 18.0556 12.4999 18.0556ZM12.4999 9.72225C14.0341 9.72225 15.2777 10.9659 15.2777 12.5C15.2777 14.0342 14.0341 15.2778 12.4999 15.2778C10.9658 15.2778 9.72217 14.0342 9.72217 12.5C9.72217 10.9659 10.9658 9.72225 12.4999 9.72225ZM12.4999 1.38892C14.0341 1.38892 15.2777 2.63257 15.2777 4.16669C15.2777 5.70082 14.0341 6.94447 12.4999 6.94447C10.9658 6.94447 9.72217 5.70082 9.72217 4.16669C9.72217 2.63257 10.9658 1.38892 12.4999 1.38892Z" fill="#8F92A1"/>
<mask id="mask0_358_97" style="mask-type:luminance" maskUnits="userSpaceOnUse" x="9" y="1" width="7" height="23">
<path fill-rule="evenodd" clip-rule="evenodd" d="M12.4999 18.0556C14.0341 18.0556 15.2777 19.2992 15.2777 20.8334C15.2777 22.3675 14.0341 23.6111 12.4999 23.6111C10.9658 23.6111 9.72217 22.3675 9.72217 20.8334C9.72217 19.2992 10.9658 18.0556 12.4999 18.0556ZM12.4999 9.72225C14.0341 9.72225 15.2777 10.9659 15.2777 12.5C15.2777 14.0342 14.0341 15.2778 12.4999 15.2778C10.9658 15.2778 9.72217 14.0342 9.72217 12.5C9.72217 10.9659 10.9658 9.72225 12.4999 9.72225ZM12.4999 1.38892C14.0341 1.38892 15.2777 2.63257 15.2777 4.16669C15.2777 5.70082 14.0341 6.94447 12.4999 6.94447C10.9658 6.94447 9.72217 5.70082 9.72217 4.16669C9.72217 2.63257 10.9658 1.38892 12.4999 1.38892Z" fill="white"/>
</mask>
<g mask="url(#mask0_358_97)">
</g>
</svg>
