<svg width="18" height="18" viewBox="0 0 18 18" fill="none" xmlns="http://www.w3.org/2000/svg">
<path fill-rule="evenodd" clip-rule="evenodd" d="M6.5 0C10.0899 0 13 2.91015 13 6.5C13 8.11 12.41 9.59 11.44 10.73L11.71 11H12.5L17.5 16L16 17.5L11 12.5V11.71L10.73 11.44C9.59 12.41 8.11 13 6.5 13C2.91015 13 0 10.0899 0 6.5C0 2.91015 2.91015 0 6.5 0ZM6.5 2C4 2 2 4 2 6.5C2 9 4 11 6.5 11C9 11 11 9 11 6.5C11 4 9 2 6.5 2Z" fill="#8F92A1"/>
<mask id="mask0_600_6151" style="mask-type:luminance" maskUnits="userSpaceOnUse" x="0" y="0" width="18" height="18">
<path fill-rule="evenodd" clip-rule="evenodd" d="M6.5 0C10.0899 0 13 2.91015 13 6.5C13 8.11 12.41 9.59 11.44 10.73L11.71 11H12.5L17.5 16L16 17.5L11 12.5V11.71L10.73 11.44C9.59 12.41 8.11 13 6.5 13C2.91015 13 0 10.0899 0 6.5C0 2.91015 2.91015 0 6.5 0ZM6.5 2C4 2 2 4 2 6.5C2 9 4 11 6.5 11C9 11 11 9 11 6.5C11 4 9 2 6.5 2Z" fill="white"/>
</mask>
<g mask="url(#mask0_600_6151)">
</g>
</svg>
