<svg width="42" height="41" viewBox="0 0 42 41" fill="none" xmlns="http://www.w3.org/2000/svg">
<path d="M9.59179 26.2855C9.15698 25.7995 8.90077 25.1798 8.8655 24.5287V16.4084C8.90067 15.7572 9.15689 15.1374 9.59179 14.6516L10.1662 14.077C10.3588 13.8839 10.467 13.6223 10.467 13.3495C10.467 13.0768 10.3588 12.8151 10.1662 12.6221L4.07343 6.52627C3.88022 6.33378 3.61866 6.22571 3.34597 6.22571C3.07328 6.22571 2.81171 6.33378 2.61851 6.52627L0.299292 8.84634C0.107564 9.03987 0 9.30131 0 9.57378C0 9.84626 0.107564 10.1077 0.299292 10.3012L4.64781 14.6514C5.0835 15.1368 5.34006 15.7568 5.37489 16.4083V24.5285C5.34015 25.1796 5.08356 25.7991 4.64781 26.2841L0.299292 30.6359C0.107564 30.8295 0 31.091 0 31.3633C0 31.6358 0.107564 31.8972 0.299292 32.0908L2.61851 34.4108C2.81173 34.6032 3.0733 34.7113 3.34597 34.7113C3.61864 34.7113 3.8802 34.6032 4.07343 34.4108L10.1662 28.3146C10.3588 28.1214 10.467 27.8599 10.467 27.5872C10.467 27.3143 10.3588 27.0529 10.1662 26.8598L9.59179 26.2855Z" fill="#666AEC"/>
<path d="M26.3359 31.4043C25.8503 31.8392 25.231 32.0959 24.58 32.1318H16.4651C15.8137 32.0959 15.194 31.8394 14.7077 31.4043L14.1347 30.8281C13.9408 30.6363 13.6792 30.5288 13.4066 30.5288C13.1339 30.5288 12.8723 30.6363 12.6784 30.8281L6.58644 36.924C6.39411 37.1176 6.28613 37.3794 6.28613 37.6523C6.28613 37.9252 6.39411 38.1871 6.58644 38.3805L8.90565 40.7006C9.09929 40.8925 9.36078 41 9.6333 41C9.90581 41 10.1673 40.8925 10.361 40.7006L14.7085 36.3483C15.1946 35.9135 15.8142 35.6571 16.4653 35.6211H24.5825C25.2335 35.6569 25.8528 35.9133 26.3384 36.3483L30.6879 40.7006C30.8815 40.8925 31.1427 41 31.4152 41C31.6875 41 31.949 40.8925 32.1424 40.7006L34.4616 38.3805C34.654 38.1871 34.7619 37.9252 34.7619 37.6523C34.7619 37.3794 34.654 37.1176 34.4616 36.924L28.3652 30.8278C28.1718 30.6359 27.9105 30.5284 27.6382 30.5284C27.3659 30.5284 27.1044 30.6359 26.911 30.8278L26.3359 31.4043Z" fill="#666AEC"/>
<path d="M31.599 14.7142C32.0349 15.2006 32.2919 15.8213 32.3273 16.4736V24.5907C32.2917 25.2427 32.0347 25.8629 31.599 26.3487L31.0244 26.9246C30.8323 27.118 30.7246 27.3795 30.7246 27.6522C30.7246 27.9247 30.8323 28.1861 31.0244 28.3795L37.1189 34.4746C37.3121 34.667 37.5737 34.775 37.8462 34.775C38.1189 34.775 38.3804 34.667 38.5736 34.4746L40.8928 32.1533C41.0852 31.9601 41.1933 31.6984 41.1933 31.4257C41.1933 31.153 41.0852 30.8914 40.8928 30.6982L36.5453 26.3479C36.1093 25.8621 35.8521 25.2419 35.8165 24.5899L35.8177 16.4728C35.8527 15.8205 36.1093 15.1998 36.5453 14.7134L40.8928 10.3633C41.0852 10.1704 41.1933 9.90908 41.1933 9.6366C41.1933 9.36413 41.0852 9.10277 40.8928 8.90994L38.5736 6.58851C38.4781 6.49295 38.3647 6.41714 38.24 6.36542C38.1151 6.31371 37.9814 6.28708 37.8462 6.28708C37.7112 6.28708 37.5774 6.31371 37.4527 6.36542C37.3277 6.41714 37.2144 6.49295 37.1189 6.58851L31.0244 12.6833C30.8323 12.8767 30.7246 13.1383 30.7246 13.4109C30.7246 13.6835 30.8323 13.945 31.0244 14.1384L31.599 14.7142Z" fill="#666AEC"/>
<path d="M14.8547 9.59553C15.3402 9.15996 15.9598 8.90329 16.6109 8.86799H24.7265C25.3775 8.9039 25.9967 9.1605 26.4825 9.59553L27.0583 10.1713C27.1536 10.2668 27.267 10.3426 27.3917 10.3943C27.5164 10.446 27.6501 10.4726 27.7851 10.4726C27.9201 10.4726 28.0539 10.446 28.1784 10.3943C28.3032 10.3426 28.4165 10.2668 28.512 10.1713L34.6056 4.07509C34.7978 3.88156 34.9057 3.61976 34.9057 3.34688C34.9057 3.07401 34.7978 2.81221 34.6056 2.61866L32.2864 0.3013C32.0933 0.108372 31.8317 0 31.5588 0C31.2859 0 31.0243 0.108372 30.8312 0.3013L26.4827 4.65145C25.9969 5.08646 25.3777 5.34305 24.7267 5.37897H16.6109C15.9598 5.34367 15.3402 5.087 14.8547 4.65145L10.5062 0.3013C10.3125 0.109546 10.0511 0.00198249 9.77861 0.00198249C9.50616 0.00198249 9.2447 0.109546 9.05106 0.3013L6.73185 2.62137C6.53957 2.81488 6.43164 3.07664 6.43164 3.34949C6.43164 3.62233 6.53957 3.88409 6.73185 4.0776L12.824 10.1711C13.0171 10.364 13.2787 10.4724 13.5516 10.4724C13.8244 10.4724 14.0861 10.364 14.2792 10.1711L14.8547 9.59553Z" fill="#666AEC"/>
</svg>
