<svg width="24" height="24" viewBox="0 0 24 24" fill="none" xmlns="http://www.w3.org/2000/svg">
<path fill-rule="evenodd" clip-rule="evenodd" d="M2.4 2.66663H21.6C22.9255 2.66663 24 3.74114 24 5.06663V19.4666C24 20.7921 22.9255 21.8666 21.6 21.8666H2.4C1.068 21.8666 0 20.7866 0 19.4666V5.06663C0 3.73463 1.068 2.66663 2.4 2.66663ZM12 11.0666L21.6 5.06663H2.40002L12 11.0666ZM2.40002 19.4666H21.6V7.91063L12 13.8986L2.40002 7.91063V19.4666Z" fill="white"/>
<mask id="mask0_0_1037" style="mask-type:luminance" maskUnits="userSpaceOnUse" x="0" y="2" width="24" height="20">
<path fill-rule="evenodd" clip-rule="evenodd" d="M2.4 2.66663H21.6C22.9255 2.66663 24 3.74114 24 5.06663V19.4666C24 20.7921 22.9255 21.8666 21.6 21.8666H2.4C1.068 21.8666 0 20.7866 0 19.4666V5.06663C0 3.73463 1.068 2.66663 2.4 2.66663ZM12 11.0666L21.6 5.06663H2.40002L12 11.0666ZM2.40002 19.4666H21.6V7.91063L12 13.8986L2.40002 7.91063V19.4666Z" fill="white"/>
</mask>
<g mask="url(#mask0_0_1037)">
</g>
</svg>
