<svg width="38" height="38" viewBox="0 0 38 38" fill="none" xmlns="http://www.w3.org/2000/svg">
<path fill-rule="evenodd" clip-rule="evenodd" d="M19 23C20.1046 23 21 23.8954 21 25C21 26.1046 20.1046 27 19 27C17.8954 27 17 26.1046 17 25C17 23.8954 17.8954 23 19 23ZM19 17C20.1046 17 21 17.8954 21 19C21 20.1046 20.1046 21 19 21C17.8954 21 17 20.1046 17 19C17 17.8954 17.8954 17 19 17ZM19 11C20.1046 11 21 11.8954 21 13C21 14.1046 20.1046 15 19 15C17.8954 15 17 14.1046 17 13C17 11.8954 17.8954 11 19 11Z" fill="#8F92A1"/>
<mask id="mask0_0_529" style="mask-type:luminance" maskUnits="userSpaceOnUse" x="17" y="11" width="4" height="16">
<path fill-rule="evenodd" clip-rule="evenodd" d="M19 23C20.1046 23 21 23.8954 21 25C21 26.1046 20.1046 27 19 27C17.8954 27 17 26.1046 17 25C17 23.8954 17.8954 23 19 23ZM19 17C20.1046 17 21 17.8954 21 19C21 20.1046 20.1046 21 19 21C17.8954 21 17 20.1046 17 19C17 17.8954 17.8954 17 19 17ZM19 11C20.1046 11 21 11.8954 21 13C21 14.1046 20.1046 15 19 15C17.8954 15 17 14.1046 17 13C17 11.8954 17.8954 11 19 11Z" fill="white"/>
</mask>
<g mask="url(#mask0_0_529)">
</g>
</svg>
